<svg width="29" height="28" viewBox="0 0 29 28" fill="none" xmlns="http://www.w3.org/2000/svg">
<path d="M23.2199 24.273L15.9004 17.1315C15.3195 17.585 14.6514 17.9439 13.8962 18.2084C13.1411 18.4729 12.3375 18.6052 11.4855 18.6052C9.37481 18.6052 7.5885 17.892 6.12654 16.4656C4.66458 15.0392 3.93359 13.2963 3.93359 11.237C3.93359 9.17766 4.66458 7.4348 6.12654 6.00839C7.5885 4.58198 9.37481 3.86877 11.4855 3.86877C13.5961 3.86877 15.3824 4.58198 16.8444 6.00839C18.3063 7.4348 19.0373 9.17766 19.0373 11.237C19.0373 12.0683 18.9018 12.8523 18.6307 13.5891C18.3596 14.326 17.9917 14.9778 17.527 15.5445L24.8465 22.686L23.2199 24.273ZM11.4855 16.338C12.9377 16.338 14.1722 15.8421 15.1888 14.8502C16.2054 13.8584 16.7137 12.6539 16.7137 11.237C16.7137 9.82002 16.2054 8.6156 15.1888 7.62372C14.1722 6.63185 12.9377 6.13591 11.4855 6.13591C10.0332 6.13591 8.79874 6.63185 7.78214 7.62372C6.76554 8.6156 6.25725 9.82002 6.25725 11.237C6.25725 12.6539 6.76554 13.8584 7.78214 14.8502C8.79874 15.8421 10.0332 16.338 11.4855 16.338Z" fill="white"/>
</svg>
